<?xml version="1.0" encoding="utf-8"?>
<!-- Generator: Adobe Illustrator 23.1.0, SVG Export Plug-In . SVG Version: 6.00 Build 0)  -->
<svg version="1.1" id="Layer_1" xmlns="http://www.w3.org/2000/svg" xmlns:xlink="http://www.w3.org/1999/xlink" x="0px" y="0px"
	 viewBox="0 0 16 16" style="enable-background:new 0 0 16 16;" xml:space="preserve">
<style type="text/css">
	.st0{fill:url(#SVGID_1_);}
	.st1{fill:url(#SVGID_2_);}
	.st2{fill:url(#SVGID_3_);}
</style>
<g>
	
		<linearGradient id="SVGID_1_" gradientUnits="userSpaceOnUse" x1="1.6714" y1="3.6715" x2="14.3286" y2="16.3286" gradientTransform="matrix(1 0 0 -1 0 18)">
		<stop  offset="0" style="stop-color:#FFD600"/>
		<stop  offset="0.5" style="stop-color:#FF0100"/>
		<stop  offset="1" style="stop-color:#D800B9"/>
	</linearGradient>
	<path class="st0" d="M15.6,4.9c0-0.8-0.2-1.4-0.4-1.8c-0.2-0.5-0.5-1-0.9-1.3C13.9,1.3,13.5,1,13,0.8c-0.5-0.2-1-0.3-1.8-0.4
		c-0.8,0-1.1,0-3.1,0s-2.3,0-3.1,0C4.1,0.5,3.5,0.6,3,0.8C2.5,1,2.1,1.3,1.7,1.7C1.3,2.1,1,2.5,0.8,3c-0.2,0.5-0.3,1-0.4,1.8
		c0,0.8,0,1.1,0,3.1c0,2.1,0,2.3,0,3.1c0,0.8,0.2,1.4,0.4,1.8c0.2,0.5,0.5,1,0.9,1.3C2.1,14.7,2.5,15,3,15.2c0.5,0.2,1,0.3,1.8,0.4
		c0.8,0,1.1,0,3.1,0s2.3,0,3.1,0c0.8,0,1.4-0.2,1.8-0.4c1-0.4,1.8-1.2,2.2-2.2c0.2-0.5,0.3-1,0.4-1.8c0-0.8,0-1.1,0-3.1
		C15.6,5.9,15.6,5.7,15.6,4.9z M14.2,11.1c0,0.7-0.2,1.1-0.3,1.4c-0.3,0.7-0.8,1.2-1.4,1.4c-0.3,0.1-0.7,0.2-1.4,0.3
		c-0.8,0-1,0-3.1,0c-2,0-2.3,0-3.1,0c-0.7,0-1.1-0.2-1.4-0.3c-0.3-0.1-0.6-0.3-0.9-0.6c-0.3-0.2-0.4-0.5-0.6-0.9
		c-0.1-0.3-0.2-0.7-0.3-1.4c0-0.8,0-1,0-3.1c0-2,0-2.3,0-3.1c0-0.7,0.2-1.1,0.3-1.4c0.1-0.3,0.3-0.6,0.6-0.9
		c0.2-0.3,0.5-0.4,0.9-0.6C3.8,2,4.2,1.8,4.9,1.8c0.8,0,1,0,3.1,0h0c2,0,2.3,0,3.1,0c0.7,0,1.1,0.2,1.4,0.3c0.3,0.1,0.6,0.3,0.9,0.6
		c0.3,0.2,0.4,0.5,0.6,0.9c0.1,0.3,0.2,0.7,0.3,1.4c0,0.8,0,1,0,3.1C14.2,10,14.2,10.3,14.2,11.1z"/>
	
		<linearGradient id="SVGID_2_" gradientUnits="userSpaceOnUse" x1="5.2385" y1="7.2385" x2="10.7614" y2="12.7614" gradientTransform="matrix(1 0 0 -1 0 18)">
		<stop  offset="0" style="stop-color:#FF6400"/>
		<stop  offset="0.5" style="stop-color:#FF0100"/>
		<stop  offset="1" style="stop-color:#FD0056"/>
	</linearGradient>
	<path class="st1" d="M8,4.1C5.8,4.1,4.1,5.8,4.1,8s1.7,3.9,3.9,3.9c2.2,0,3.9-1.7,3.9-3.9S10.2,4.1,8,4.1z M8,10.5
		c-1.4,0-2.5-1.1-2.5-2.5c0-1.4,1.1-2.5,2.5-2.5c1.4,0,2.5,1.1,2.5,2.5C10.5,9.4,9.4,10.5,8,10.5z"/>
</g>
<linearGradient id="SVGID_3_" gradientUnits="userSpaceOnUse" x1="11.5915" y1="13.5916" x2="12.9492" y2="14.9493" gradientTransform="matrix(1 0 0 -1 0 18)">
	<stop  offset="0" style="stop-color:#F30072"/>
	<stop  offset="1" style="stop-color:#E50097"/>
</linearGradient>
<path class="st2" d="M13.2,3.7c0,0.5-0.4,1-1,1c-0.5,0-1-0.4-1-1c0-0.5,0.4-1,1-1C12.8,2.8,13.2,3.2,13.2,3.7z"/>
</svg>
